<svg xmlns="http://www.w3.org/2000/svg" viewBox="0 0 240 400"><defs><style>.cls-1{fill:#8c9df8;}.cls-2{fill:#99e7ff;}.cls-3{fill:#f0f;}</style></defs><g id="Layer_2" data-name="Layer 2"><g id="Layer_1-2" data-name="Layer 1"><rect class="cls-1" width="240" height="400"/><path class="cls-2" d="M0,40V0H40V40Zm120,0V0H80V40Zm80,0V0H160V40ZM80,80V40H40V80Zm80,0V40H120V80Zm80,0V40H200V80ZM40,120V80H0v40Zm80,0V80H80v40Zm80,0V80H160v40ZM80,160V120H40v40Zm80,0V120H120v40Zm80,0V120H200v40ZM40,200V160H0v40Zm80,0V160H80v40Zm80,0V160H160v40ZM80,240V200H40v40Zm80,0V200H120v40Zm80,0V200H200v40ZM40,280V240H0v40Zm80,0V240H80v40Zm80,0V240H160v40ZM80,320V280H40v40Zm80,0V280H120v40Zm80,0V280H200v40ZM40,360V320H0v40Zm80,0V320H80v40Zm80,0V320H160v40ZM80,400V360H40v40Zm80,0V360H120v40Zm80,0V360H200v40Z"/><circle class="cls-3" cx="120" cy="45" r="40"/><circle class="cls-3" cx="120" cy="145" r="40"/><circle class="cls-3" cx="120" cy="245" r="40"/><circle class="cls-3" cx="120" cy="355" r="40"/></g></g></svg>